<mxfile host="Electron" agent="Mozilla/5.0 (Windows NT 10.0; Win64; x64) AppleWebKit/537.36 (KHTML, like Gecko) draw.io/28.0.6 Chrome/138.0.7204.100 Electron/37.2.3 Safari/537.36" version="28.0.6">
  <diagram name="编译链接流程" id="0">
    <mxGraphModel dx="2037" dy="1227" grid="1" gridSize="10" guides="1" tooltips="1" connect="1" arrows="1" fold="1" page="1" pageScale="1" pageWidth="1600" pageHeight="900" background="#ffffff" math="0" shadow="0">
      <root>
        <mxCell id="0" />
        <mxCell id="1" parent="0" />
        <mxCell id="title" value="编译链接全景图：从源代码到可执行文件" style="text;html=1;strokeColor=none;fillColor=none;align=center;verticalAlign=middle;whiteSpace=wrap;rounded=0;fontSize=24;fontStyle=1" parent="1" vertex="1">
          <mxGeometry x="400" y="20" width="800" height="40" as="geometry" />
        </mxCell>
        <mxCell id="prep-container" value="1️⃣ 预处理阶段 (Preprocessing)" style="swimlane;whiteSpace=wrap;html=1;fillColor=#E1F5FF;strokeColor=#0D47A1;strokeWidth=2;fontSize=14;fontStyle=1;startSize=40;dashed=1;" parent="1" vertex="1">
          <mxGeometry x="40" y="80" width="320" height="280" as="geometry" />
        </mxCell>
        <mxCell id="prep-src" value="main.c&#xa;源文件" style="rounded=1;whiteSpace=wrap;html=1;fillColor=#FFF9C4;strokeColor=#F57C00;strokeWidth=2;fontSize=12;" parent="prep-container" vertex="1">
          <mxGeometry x="160" y="50" width="120" height="50" as="geometry" />
        </mxCell>
        <mxCell id="prep-proc" value="预处理器" style="rhombus;whiteSpace=wrap;html=1;fillColor=#BBDEFB;strokeColor=#1976D2;strokeWidth=2;fontSize=12;" parent="prep-container" vertex="1">
          <mxGeometry x="150" y="130" width="140" height="60" as="geometry" />
        </mxCell>
        <mxCell id="prep-out" value="main.i&#xa;预处理后代码" style="rounded=1;whiteSpace=wrap;html=1;fillColor=#FFF9C4;strokeColor=#F57C00;strokeWidth=2;fontSize=12;" parent="prep-container" vertex="1">
          <mxGeometry x="160" y="220" width="120" height="50" as="geometry" />
        </mxCell>
        <mxCell id="prep-note" value="&lt;font face=&quot;Helvetica&quot;&gt;• 宏展开 #define&lt;br&gt;• 头文件包含 #include&lt;br&gt;• 条件编译 #ifdef&lt;br&gt;• 注释移除&lt;/font&gt;" style="text;html=1;strokeColor=#81C784;fillColor=#C8E6C9;align=left;verticalAlign=top;whiteSpace=wrap;rounded=1;fontSize=10;fontFamily=Courier New;arcSize=10;" parent="prep-container" vertex="1">
          <mxGeometry x="30" y="50" width="100" height="65" as="geometry" />
        </mxCell>
        <mxCell id="Vv6tWbdrARQZX-b5DviX-1" value="" style="endArrow=classic;html=1;rounded=0;exitX=0.5;exitY=1;exitDx=0;exitDy=0;entryX=0.5;entryY=0;entryDx=0;entryDy=0;strokeColor=#666666;strokeWidth=2;endSize=3;startSize=3;" edge="1" parent="prep-container" source="prep-src" target="prep-proc">
          <mxGeometry width="50" height="50" relative="1" as="geometry">
            <mxPoint x="290" y="220" as="sourcePoint" />
            <mxPoint x="340" y="170" as="targetPoint" />
          </mxGeometry>
        </mxCell>
        <mxCell id="Vv6tWbdrARQZX-b5DviX-2" value="" style="endArrow=classic;html=1;rounded=0;exitX=0.5;exitY=1;exitDx=0;exitDy=0;endSize=3;strokeColor=#666666;strokeWidth=2;" edge="1" parent="prep-container" source="prep-proc">
          <mxGeometry width="50" height="50" relative="1" as="geometry">
            <mxPoint x="219.82999999999998" y="200" as="sourcePoint" />
            <mxPoint x="220" y="220" as="targetPoint" />
          </mxGeometry>
        </mxCell>
        <mxCell id="comp-container" value="2️⃣ 编译阶段 (Compilation)" style="swimlane;whiteSpace=wrap;html=1;fillColor=#FFF4E1;strokeColor=#E65100;strokeWidth=2;fontSize=14;fontStyle=1;startSize=40;dashed=1;" parent="1" vertex="1">
          <mxGeometry x="400" y="80" width="320" height="280" as="geometry" />
        </mxCell>
        <mxCell id="comp-proc" value="编译器&#xa;Compiler" style="rhombus;whiteSpace=wrap;html=1;fillColor=#BBDEFB;strokeColor=#1976D2;strokeWidth=2;fontSize=12;" parent="comp-container" vertex="1">
          <mxGeometry x="90" y="90" width="140" height="60" as="geometry" />
        </mxCell>
        <mxCell id="comp-arrow" style="edgeStyle=orthogonalEdgeStyle;rounded=0;orthogonalLoop=1;jettySize=auto;html=1;strokeWidth=2;strokeColor=#E65100;endSize=3;" parent="comp-container" source="comp-proc" target="comp-out" edge="1">
          <mxGeometry relative="1" as="geometry" />
        </mxCell>
        <mxCell id="comp-arrow-label" value="gcc -S" style="edgeLabel;html=1;align=center;verticalAlign=middle;resizable=0;points=[];fontSize=10;fontColor=#E65100;fontStyle=1" parent="comp-arrow" vertex="1" connectable="0">
          <mxGeometry x="-0.2" y="1" relative="1" as="geometry">
            <mxPoint x="-21" y="6" as="offset" />
          </mxGeometry>
        </mxCell>
        <mxCell id="comp-out" value="main.s&#xa;汇编代码" style="rounded=1;whiteSpace=wrap;html=1;fillColor=#FFF9C4;strokeColor=#F57C00;strokeWidth=2;fontSize=12;" parent="comp-container" vertex="1">
          <mxGeometry x="100" y="210" width="120" height="50" as="geometry" />
        </mxCell>
        <mxCell id="comp-note" value="• 词法分析&#xa;• 语法分析&#xa;• 语义分析&#xa;• 代码优化&#xa;• 生成汇编" style="text;html=1;strokeColor=#81C784;fillColor=#C8E6C9;align=left;verticalAlign=top;whiteSpace=wrap;rounded=1;fontSize=10;fontFamily=Courier New;" parent="comp-container" vertex="1">
          <mxGeometry x="240" y="50" width="60" height="70" as="geometry" />
        </mxCell>
        <mxCell id="link-container" value="4️⃣ 链接阶段 (Linking) - 🎯 链接脚本的舞台" style="swimlane;whiteSpace=wrap;html=1;fillColor=#E8F5E9;strokeColor=#2E7D32;strokeWidth=3;fontSize=14;fontStyle=1;startSize=40;dashed=1;" parent="1" vertex="1">
          <mxGeometry x="1120" y="80" width="620" height="400" as="geometry" />
        </mxCell>
        <mxCell id="link-linker" value="链接器&#xa;Linker (ld)" style="rhombus;whiteSpace=wrap;html=1;fillColor=#A5D6A7;strokeColor=#2E7D32;strokeWidth=3;fontSize=14;fontStyle=1;" parent="link-container" vertex="1">
          <mxGeometry x="150" y="60" width="140" height="80" as="geometry" />
        </mxCell>
        <mxCell id="link-script" value="linker.ld&#xa;📜 链接脚本" style="shape=note;whiteSpace=wrap;html=1;fillColor=#FFD700;strokeColor=#FF6B6B;strokeWidth=4;fontSize=13;fontStyle=1;size=15;" parent="link-container" vertex="1">
          <mxGeometry x="490" y="60" width="100" height="80" as="geometry" />
        </mxCell>
        <mxCell id="link-script-arrow" style="edgeStyle=orthogonalEdgeStyle;rounded=0;orthogonalLoop=1;jettySize=auto;html=1;strokeWidth=2;strokeColor=#FF6B6B;dashed=1;endSize=3;" parent="link-container" source="link-script" target="link-linker" edge="1">
          <mxGeometry relative="1" as="geometry" />
        </mxCell>
        <mxCell id="link-script-label" value="指导内存布局" style="edgeLabel;html=1;align=center;verticalAlign=middle;resizable=0;points=[];fontSize=11;fontColor=#D32F2F;fontStyle=1;labelBackgroundColor=#FFEBEE;" parent="link-script-arrow" vertex="1" connectable="0">
          <mxGeometry x="-0.1" y="2" relative="1" as="geometry">
            <mxPoint x="-12" y="-32" as="offset" />
          </mxGeometry>
        </mxCell>
        <mxCell id="link-sym" value="符号解析&#xa;Symbol Resolution&#xa;找到所有函数/变量定义" style="rounded=1;whiteSpace=wrap;html=1;fillColor=#C8E6C9;strokeColor=#388E3C;strokeWidth=2;fontSize=11;" parent="link-container" vertex="1">
          <mxGeometry x="60" y="190" width="140" height="70" as="geometry" />
        </mxCell>
        <mxCell id="link-reloc" value="重定位&#xa;Relocation&#xa;分配地址，修正引用" style="rounded=1;whiteSpace=wrap;html=1;fillColor=#C8E6C9;strokeColor=#388E3C;strokeWidth=2;fontSize=11;" parent="link-container" vertex="1">
          <mxGeometry x="240" y="190" width="140" height="70" as="geometry" />
        </mxCell>
        <mxCell id="link-arrow-sym" style="edgeStyle=orthogonalEdgeStyle;rounded=0;orthogonalLoop=1;jettySize=auto;html=1;strokeWidth=2;strokeColor=#2E7D32;endSize=3;" parent="link-container" source="link-linker" target="link-sym" edge="1">
          <mxGeometry relative="1" as="geometry" />
        </mxCell>
        <mxCell id="link-arrow-reloc" style="edgeStyle=orthogonalEdgeStyle;rounded=0;orthogonalLoop=1;jettySize=auto;html=1;strokeWidth=2;strokeColor=#2E7D32;endSize=3;" parent="link-container" source="link-linker" target="link-reloc" edge="1">
          <mxGeometry relative="1" as="geometry" />
        </mxCell>
        <mxCell id="link-elf" value="program.elf&#xa;可执行文件" style="rounded=1;whiteSpace=wrap;html=1;fillColor=#FFF9C4;strokeColor=#F57C00;strokeWidth=3;fontSize=13;fontStyle=1;" parent="link-container" vertex="1">
          <mxGeometry x="140" y="310" width="160" height="60" as="geometry" />
        </mxCell>
        <mxCell id="link-arrow-elf1" style="edgeStyle=orthogonalEdgeStyle;rounded=0;orthogonalLoop=1;jettySize=auto;html=1;strokeWidth=2;strokeColor=#2E7D32;endSize=3;" parent="link-container" source="link-sym" target="link-elf" edge="1">
          <mxGeometry relative="1" as="geometry" />
        </mxCell>
        <mxCell id="link-arrow-elf2" style="edgeStyle=orthogonalEdgeStyle;rounded=0;orthogonalLoop=1;jettySize=auto;html=1;strokeWidth=2;strokeColor=#2E7D32;endSize=3;" parent="link-container" source="link-reloc" target="link-elf" edge="1">
          <mxGeometry relative="1" as="geometry" />
        </mxCell>
        <mxCell id="link-note" value="&lt;p style=&quot;margin-top: 0px;&quot;&gt;&lt;/p&gt;&lt;div style=&quot;text-align: center;&quot;&gt;&lt;span style=&quot;font-family: &amp;quot;Microsoft YaHei&amp;quot;; background-color: transparent; color: light-dark(rgb(0, 0, 0), rgb(255, 255, 255));&quot;&gt;&lt;font style=&quot;font-size: 12px;&quot;&gt;链接脚本的作用:&lt;/font&gt;&lt;/span&gt;&lt;/div&gt;&lt;font style=&quot;font-size: 12px;&quot;&gt;&lt;font style=&quot;line-height: 130%;&quot; face=&quot;Microsoft YaHei&quot;&gt;• MEMORY: 定义Flash/RAM&lt;br&gt;&lt;/font&gt;&lt;font style=&quot;line-height: 130%;&quot; face=&quot;Microsoft YaHei&quot;&gt;• SECTIONS: 指定段位置&lt;br&gt;&lt;/font&gt;&lt;font style=&quot;line-height: 130%;&quot; face=&quot;Microsoft YaHei&quot;&gt;• VMA vs LMA: 双地址&lt;br&gt;&lt;/font&gt;&lt;font style=&quot;line-height: 130%;&quot; face=&quot;Microsoft YaHei&quot;&gt;• 创建符号供代码使用&lt;/font&gt;&lt;/font&gt;&lt;p&gt;&lt;/p&gt;" style="text;html=1;strokeColor=#FF6B6B;fillColor=#FFEBEE;align=left;verticalAlign=middle;whiteSpace=wrap;rounded=1;fontSize=10;fontFamily=Courier New;fontStyle=1;spacing=2;" parent="link-container" vertex="1">
          <mxGeometry x="420" y="152.5" width="180" height="95" as="geometry" />
        </mxCell>
        <mxCell id="final-container" value="5️⃣ 最终产物 (Deployment)" style="swimlane;whiteSpace=wrap;html=1;fillColor=#FFEBEE;strokeColor=#C62828;strokeWidth=2;fontSize=14;fontStyle=1;startSize=40;" parent="1" vertex="1">
          <mxGeometry x="1120" y="520" width="620" height="180" as="geometry" />
        </mxCell>
        <mxCell id="final-bin" value="program.bin&#xa;二进制镜像" style="rounded=1;whiteSpace=wrap;html=1;fillColor=#FFCDD2;strokeColor=#C62828;strokeWidth=2;fontSize=12;" parent="final-container" vertex="1">
          <mxGeometry x="80" y="70" width="120" height="50" as="geometry" />
        </mxCell>
        <mxCell id="final-hex" value="program.hex&#xa;HEX文件" style="rounded=1;whiteSpace=wrap;html=1;fillColor=#FFCDD2;strokeColor=#C62828;strokeWidth=2;fontSize=12;" parent="final-container" vertex="1">
          <mxGeometry x="450" y="70" width="120" height="50" as="geometry" />
        </mxCell>
        <mxCell id="final-flash" value="🔥 烧录到Flash" style="ellipse;whiteSpace=wrap;html=1;fillColor=#D32F2F;strokeColor=#B71C1C;strokeWidth=3;fontSize=14;fontStyle=1;fontColor=#FFFFFF;" parent="final-container" vertex="1">
          <mxGeometry x="230" y="130" width="160" height="40" as="geometry" />
        </mxCell>
        <mxCell id="final-arrow1" style="edgeStyle=orthogonalEdgeStyle;rounded=0;orthogonalLoop=1;jettySize=auto;html=1;strokeWidth=2;strokeColor=#C62828;endArrow=none;endFill=0;" parent="final-container" source="final-bin" edge="1">
          <mxGeometry relative="1" as="geometry">
            <mxPoint x="340" y="95" as="targetPoint" />
          </mxGeometry>
        </mxCell>
        <mxCell id="final-arrow2" style="edgeStyle=orthogonalEdgeStyle;rounded=0;orthogonalLoop=1;jettySize=auto;html=1;strokeWidth=2;strokeColor=#C62828;endSize=3;" parent="final-container" source="final-hex" target="final-flash" edge="1">
          <mxGeometry relative="1" as="geometry">
            <Array as="points">
              <mxPoint x="310" y="95" />
            </Array>
          </mxGeometry>
        </mxCell>
        <mxCell id="cross-arrow1" style="edgeStyle=orthogonalEdgeStyle;rounded=0;orthogonalLoop=1;jettySize=auto;html=1;strokeWidth=2;strokeColor=#666666;exitX=1;exitY=0.5;exitDx=0;exitDy=0;entryX=0;entryY=0.5;entryDx=0;entryDy=0;endSize=3;" parent="1" source="prep-out" target="comp-proc" edge="1">
          <mxGeometry relative="1" as="geometry">
            <Array as="points">
              <mxPoint x="430" y="325" />
              <mxPoint x="430" y="200" />
            </Array>
          </mxGeometry>
        </mxCell>
        <mxCell id="cross-arrow2" style="edgeStyle=orthogonalEdgeStyle;rounded=0;orthogonalLoop=1;jettySize=auto;html=1;strokeWidth=2;strokeColor=#666666;entryX=0;entryY=0.5;entryDx=0;entryDy=0;endSize=3;" parent="1" source="comp-out" target="asm-proc" edge="1">
          <mxGeometry relative="1" as="geometry">
            <Array as="points">
              <mxPoint x="740" y="315" />
              <mxPoint x="740" y="170" />
            </Array>
          </mxGeometry>
        </mxCell>
        <mxCell id="cross-arrow3" style="edgeStyle=orthogonalEdgeStyle;rounded=0;orthogonalLoop=1;jettySize=auto;html=1;strokeWidth=2;strokeColor=#666666;entryX=0;entryY=0.5;entryDx=0;entryDy=0;endSize=3;" parent="1" source="asm-out" target="link-linker" edge="1">
          <mxGeometry relative="1" as="geometry">
            <mxPoint x="1270" y="200" as="targetPoint" />
            <Array as="points">
              <mxPoint x="1100" y="280" />
              <mxPoint x="1100" y="180" />
            </Array>
          </mxGeometry>
        </mxCell>
        <mxCell id="cross-arrow5" style="edgeStyle=orthogonalEdgeStyle;rounded=0;orthogonalLoop=1;jettySize=auto;html=1;strokeWidth=2;strokeColor=#666666;endArrow=none;endFill=0;endSize=3;" parent="1" source="asm-other2" edge="1">
          <mxGeometry relative="1" as="geometry">
            <Array as="points">
              <mxPoint x="890" y="380" />
              <mxPoint x="1100" y="380" />
            </Array>
            <mxPoint x="1100" y="280" as="targetPoint" />
          </mxGeometry>
        </mxCell>
        <mxCell id="cross-arrow6" style="edgeStyle=orthogonalEdgeStyle;rounded=0;orthogonalLoop=1;jettySize=auto;html=1;strokeWidth=2;strokeColor=#6A1B9A;entryX=0.5;entryY=0;entryDx=0;entryDy=0;endSize=3;exitX=1;exitY=0.5;exitDx=0;exitDy=0;" parent="1" source="asm-lib" target="link-linker" edge="1">
          <mxGeometry relative="1" as="geometry">
            <Array as="points">
              <mxPoint x="1090" y="325" />
              <mxPoint x="1090" y="130" />
              <mxPoint x="1340" y="130" />
            </Array>
          </mxGeometry>
        </mxCell>
        <mxCell id="cross-arrow7" style="edgeStyle=orthogonalEdgeStyle;rounded=0;orthogonalLoop=1;jettySize=auto;html=1;strokeWidth=2;strokeColor=#666666;endSize=3;" parent="1" source="link-elf" target="final-bin" edge="1">
          <mxGeometry relative="1" as="geometry">
            <mxPoint x="1340" y="480" as="sourcePoint" />
            <mxPoint x="1340" y="595" as="targetPoint" />
            <Array as="points">
              <mxPoint x="1340" y="500" />
              <mxPoint x="1260" y="500" />
            </Array>
          </mxGeometry>
        </mxCell>
        <mxCell id="cross-arrow7-label" value="objcopy" style="edgeLabel;html=1;align=center;verticalAlign=middle;resizable=0;points=[];fontSize=10;fontColor=#666666;fontStyle=1" parent="cross-arrow7" vertex="1" connectable="0">
          <mxGeometry x="-0.2" y="1" relative="1" as="geometry">
            <mxPoint x="58" y="-31" as="offset" />
          </mxGeometry>
        </mxCell>
        <mxCell id="legend-container" value="图例 (Legend)" style="swimlane;whiteSpace=wrap;html=1;fillColor=#F5F5F5;strokeColor=#616161;strokeWidth=1;fontSize=12;fontStyle=1;startSize=30;" parent="1" vertex="1">
          <mxGeometry x="40" y="400" width="1040" height="90" as="geometry" />
        </mxCell>
        <mxCell id="legend-file" value="文件" style="rounded=1;whiteSpace=wrap;html=1;fillColor=#FFF9C4;strokeColor=#F57C00;strokeWidth=2;fontSize=10;" parent="legend-container" vertex="1">
          <mxGeometry x="20" y="40" width="80" height="30" as="geometry" />
        </mxCell>
        <mxCell id="legend-process" value="处理器" style="rhombus;whiteSpace=wrap;html=1;fillColor=#BBDEFB;strokeColor=#1976D2;strokeWidth=2;fontSize=10;" parent="legend-container" vertex="1">
          <mxGeometry x="130" y="40" width="90" height="40" as="geometry" />
        </mxCell>
        <mxCell id="legend-linker" value="链接器" style="rhombus;whiteSpace=wrap;html=1;fillColor=#A5D6A7;strokeColor=#2E7D32;strokeWidth=3;fontSize=10;fontStyle=1;" parent="legend-container" vertex="1">
          <mxGeometry x="250" y="40" width="90" height="40" as="geometry" />
        </mxCell>
        <mxCell id="legend-script" value="链接脚本" style="shape=note;whiteSpace=wrap;html=1;fillColor=#FFD700;strokeColor=#FF6B6B;strokeWidth=3;fontSize=10;fontStyle=1;size=10;" parent="legend-container" vertex="1">
          <mxGeometry x="370" y="40" width="70" height="40" as="geometry" />
        </mxCell>
        <mxCell id="legend-lib" value="静态库" style="rounded=1;whiteSpace=wrap;html=1;fillColor=#E1BEE7;strokeColor=#6A1B9A;strokeWidth=1;fontSize=10;" parent="legend-container" vertex="1">
          <mxGeometry x="470" y="45" width="70" height="30" as="geometry" />
        </mxCell>
        <mxCell id="legend-action" value="链接器任务" style="rounded=1;whiteSpace=wrap;html=1;fillColor=#C8E6C9;strokeColor=#388E3C;strokeWidth=2;fontSize=10;" parent="legend-container" vertex="1">
          <mxGeometry x="570" y="45" width="80" height="30" as="geometry" />
        </mxCell>
        <mxCell id="legend-arrow" value="" style="endArrow=classic;html=1;strokeWidth=2;strokeColor=#666666;" parent="legend-container" edge="1">
          <mxGeometry width="50" height="50" relative="1" as="geometry">
            <mxPoint x="680" y="60" as="sourcePoint" />
            <mxPoint x="750" y="60" as="targetPoint" />
          </mxGeometry>
        </mxCell>
        <mxCell id="legend-arrow-label" value="数据流" style="text;html=1;strokeColor=none;fillColor=none;align=center;verticalAlign=middle;whiteSpace=wrap;rounded=0;fontSize=10;" parent="legend-container" vertex="1">
          <mxGeometry x="755" y="50" width="50" height="20" as="geometry" />
        </mxCell>
        <mxCell id="legend-arrow2" value="" style="endArrow=classic;html=1;strokeWidth=3;strokeColor=#FF6B6B;dashed=1;dashPattern=5 5;" parent="legend-container" edge="1">
          <mxGeometry width="50" height="50" relative="1" as="geometry">
            <mxPoint x="830" y="60" as="sourcePoint" />
            <mxPoint x="900" y="60" as="targetPoint" />
          </mxGeometry>
        </mxCell>
        <mxCell id="legend-arrow2-label" value="指导关系" style="text;html=1;strokeColor=none;fillColor=none;align=center;verticalAlign=middle;whiteSpace=wrap;rounded=0;fontSize=10;" parent="legend-container" vertex="1">
          <mxGeometry x="905" y="50" width="60" height="20" as="geometry" />
        </mxCell>
        <mxCell id="Vv6tWbdrARQZX-b5DviX-3" value="" style="endArrow=none;html=1;rounded=0;exitX=0.5;exitY=1;exitDx=0;exitDy=0;endFill=0;strokeWidth=2;strokeColor=#666666;endSize=3;" edge="1" parent="1" source="asm-other1">
          <mxGeometry width="50" height="50" relative="1" as="geometry">
            <mxPoint x="860" y="340" as="sourcePoint" />
            <mxPoint x="890" y="380" as="targetPoint" />
            <Array as="points">
              <mxPoint x="820" y="380" />
            </Array>
          </mxGeometry>
        </mxCell>
        <mxCell id="asm-container" value="3️⃣ 汇编阶段 (Assembly)" style="swimlane;whiteSpace=wrap;html=1;fillColor=#FFE1F5;strokeColor=#AD1457;strokeWidth=2;fontSize=14;fontStyle=1;startSize=40;dashed=1;" parent="1" vertex="1">
          <mxGeometry x="760" y="80" width="320" height="280" as="geometry" />
        </mxCell>
        <mxCell id="asm-proc" value="汇编器&#xa;Assembler" style="rhombus;whiteSpace=wrap;html=1;fillColor=#BBDEFB;strokeColor=#1976D2;strokeWidth=2;fontSize=12;" parent="asm-container" vertex="1">
          <mxGeometry x="70" y="60" width="140" height="60" as="geometry" />
        </mxCell>
        <mxCell id="asm-out" value="main.o&#xa;目标文件 (ELF)" style="rounded=1;whiteSpace=wrap;html=1;fillColor=#FFF9C4;strokeColor=#F57C00;strokeWidth=2;fontSize=12;" parent="asm-container" vertex="1">
          <mxGeometry x="100" y="170" width="120" height="50" as="geometry" />
        </mxCell>
        <mxCell id="asm-other1" value="math.o" style="rounded=1;whiteSpace=wrap;html=1;fillColor=#FFF9C4;strokeColor=#F57C00;strokeWidth=1;fontSize=10;" parent="asm-container" vertex="1">
          <mxGeometry x="30" y="230" width="60" height="30" as="geometry" />
        </mxCell>
        <mxCell id="asm-other2" value="utils.o" style="rounded=1;whiteSpace=wrap;html=1;fillColor=#FFF9C4;strokeColor=#F57C00;strokeWidth=1;fontSize=10;" parent="asm-container" vertex="1">
          <mxGeometry x="100" y="230" width="60" height="30" as="geometry" />
        </mxCell>
        <mxCell id="asm-lib" value="libc.a" style="rounded=1;whiteSpace=wrap;html=1;fillColor=#E1BEE7;strokeColor=#6A1B9A;strokeWidth=1;fontSize=10;" parent="asm-container" vertex="1">
          <mxGeometry x="230" y="230" width="60" height="30" as="geometry" />
        </mxCell>
        <mxCell id="Vv6tWbdrARQZX-b5DviX-6" value="" style="curved=1;endArrow=classic;html=1;rounded=0;exitX=0.5;exitY=1;exitDx=0;exitDy=0;strokeColor=#AD1457;strokeWidth=2;entryX=0.5;entryY=0;entryDx=0;entryDy=0;endSize=3;" edge="1" parent="asm-container" source="asm-proc" target="asm-out">
          <mxGeometry width="50" height="50" relative="1" as="geometry">
            <mxPoint x="150" y="240" as="sourcePoint" />
            <mxPoint x="160" y="160" as="targetPoint" />
            <Array as="points">
              <mxPoint x="140" y="130" />
              <mxPoint x="160" y="140" />
            </Array>
          </mxGeometry>
        </mxCell>
        <mxCell id="asm-note" value="&lt;font face=&quot;Verdana&quot;&gt;• 汇编→机器码&lt;br&gt;• 生成符号表&lt;br&gt;• 创建重定位表&lt;br&gt;• ELF格式打包&lt;/font&gt;" style="text;html=1;strokeColor=#81C784;fillColor=#C8E6C9;align=left;verticalAlign=top;whiteSpace=wrap;rounded=1;fontSize=10;fontFamily=Courier New;" parent="asm-container" vertex="1">
          <mxGeometry x="230" y="50" width="80" height="70" as="geometry" />
        </mxCell>
        <mxCell id="Vv6tWbdrARQZX-b5DviX-11" value="" style="endArrow=classic;html=1;rounded=0;entryX=0.5;entryY=0;entryDx=0;entryDy=0;strokeColor=#666666;strokeWidth=2;endFill=1;endSize=3;" edge="1" parent="1" target="final-hex">
          <mxGeometry width="50" height="50" relative="1" as="geometry">
            <mxPoint x="1340" y="500" as="sourcePoint" />
            <mxPoint x="1530" y="380" as="targetPoint" />
            <Array as="points">
              <mxPoint x="1630" y="500" />
            </Array>
          </mxGeometry>
        </mxCell>
      </root>
    </mxGraphModel>
  </diagram>
</mxfile>
